<svg xmlns="http://www.w3.org/2000/svg" xmlns:xlink="http://www.w3.org/1999/xlink" viewBox="0 0 600 120" width="600" height="120" xmlns:c2pa="http://c2pa.org/manifest"><metadata><c2pa:manifest>AAAWgmp1bWIAAAAeanVtZGMycGEAEQAQgAAAqgA4m3EDYzJwYQAAABZcanVtYgAAAEdqdW1kYzJtYQARABCAAACqADibcQN1cm46YzJwYTpjODlhNzJmNy00MmIyLTRjNDgtOWQzNC03OTUxZjUwYzVhZTAAAAADl2p1bWIAAAApanVtZGMyYXMAEQAQgAAAqgA4m3EDYzJwYS5hc3NlcnRpb25zAAAAALxqdW1iAAAARGp1bWRjYm9yABEAEIAAAKoAOJtxE2MycGEuaW5ncmVkaWVudC52MwAAAAAYYzJzaA7eAh5MQrAmevlSFLsxth4AAABwY2JvcqNpZGM6Zm9ybWF0bWltYWdlL3N2Zyt4bWxqaW5zdGFuY2VJRHgseG1wOmlpZDozMTI5YTAzMy00NjNlLTQ1MzAtYmYyMC0wNTMyMTYzNmZmMjZscmVsYXRpb25zaGlwaHBhcmVudE9mAAAB4mp1bWIAAABBanVtZGNib3IAEQAQgAAAqgA4m3ETYzJwYS5hY3Rpb25zLnYyAAAAABhjMnNo+HqwIDwktAGv3GcOkS6v5wAAAZljYm9yomdhY3Rpb25zgqJmYWN0aW9ua2MycGEub3BlbmVkanBhcmFtZXRlcnOha2luZ3JlZGllbnRzgaJjdXJseC1zZWxmI2p1bWJmPWMycGEuYXNzZXJ0aW9ucy9jMnBhLmluZ3JlZGllbnQudjNkaGFzaFgg36E+35Q9rWr0Umru7no+/B20Nnl8WxE+W7h/bSZS/SykZmFjdGlvbngdY29tLmFudGhyb3BpYy5jbGF1ZGUucHJvdmlkZWRqcGFyYW1ldGVyc6F4H2NvbS5hbnRocm9waWMub3JpZ2luLWNvbmZpZGVuY2VndW5rbm93bmtkZXNjcmlwdGlvbnhmQ2xhdWRlIHByb3ZpZGVkIHRoaXMgZmlsZSBhdCB0aGUgcmVxdWVzdCBvZiBhIHVzZXIgYW5kIG1heSBoYXZlIGNyZWF0ZWQgb3IgbW9kaWZpZWQgdGhlIGZpbGUgY29udGVudHMubXNvZnR3YXJlQWdlbnShZG5hbWVmQ2xhdWRlcmFsbEFjdGlvbnNJbmNsdWRlZPUAAADIanVtYgAAAEBqdW1kY2JvcgARABCAAACqADibcRNjMnBhLmhhc2guZGF0YQAAAAAYYzJzaM2I7gR8vgZCppDpjNgxBr4AAACAY2JvcqVjYWxnZnNoYTI1NmNwYWRNAAAAAAAAAAAAAAAAAGRoYXNoWCBG5UJG3qVjXXpyNfEqd+98GghoigqozalhFfZ3L8Kw6GRuYW1lbmp1bWJmIG1hbmlmZXN0amV4Y2x1c2lvbnOBomVzdGFydBjBZmxlbmd0aBkeBAAAAj5qdW1iAAAAJ2p1bWRjMmNsABEAEIAAAKoAOJtxA2MycGEuY2xhaW0udjIAAAACD2Nib3KlY2FsZ2ZzaGEyNTZpc2lnbmF0dXJleE1zZWxmI2p1bWJmPS9jMnBhL3VybjpjMnBhOmM4OWE3MmY3LTQyYjItNGM0OC05ZDM0LTc5NTFmNTBjNWFlMC9jMnBhLnNpZ25hdHVyZWppbnN0YW5jZUlEeCx4bXA6aWlkOjNhOGRjMmNkLTU3NTEtNDk0ZS04ZDcxLTYxOWUyYWU2Y2FkNXJjcmVhdGVkX2Fzc2VydGlvbnODomN1cmx4LXNlbGYjanVtYmY9YzJwYS5hc3NlcnRpb25zL2MycGEuaW5ncmVkaWVudC52M2RoYXNoWCDfoT7flD2tavRSau7uej78HbQ2eXxbET5buH9tJlL9LKJjdXJseCpzZWxmI2p1bWJmPWMycGEuYXNzZXJ0aW9ucy9jMnBhLmFjdGlvbnMudjJkaGFzaFggd8MbdiZfJSUrgNxfATLP0Ciay+zftQJVHirB3sY5PRGiY3VybHgpc2VsZiNqdW1iZj1jMnBhLmFzc2VydGlvbnMvYzJwYS5oYXNoLmRhdGFkaGFzaFggcw1vaygrnBayuar5/Q1pLXkoPg5dkW4P7i+c0RespGR0Y2xhaW1fZ2VuZXJhdG9yX2luZm+jZG5hbWVvQW50aHJvcGljIEZpbGVzZ3ZlcnNpb25lMS4wLjBrc3BlY1ZlcnNpb25lMi40LjAAABA4anVtYgAAAChqdW1kYzJjcwARABCAAACqADibcQNjMnBhLnNpZ25hdHVyZQAAABAIY2JvctKEWQISogEmGCFZAgowggIGMIIBjaADAgECAhRA5aAK7sI50L64g/oGQgU9Z1UTADAKBggqhkjOPQQDAzBJMRcwFQYDVQQKEw5BbnRocm9waWMsIFBCQzEuMCwGA1UEAxMlQW50aHJvcGljIENvbnRlbnQgQ3JlZGVudGlhbHMgUm9vdCBDQTAeFw0yNjA4MDcxODQzNTZaFw0yODA4MDYxOTQzNTZaMEQxFzAVBgNVBAoTDkFudGhyb3BpYywgUEJDMSkwJwYDVQQDEyBBbnRocm9waWMgQ2xhdWRlIENvbnRlbnQgU2lnbmluZzBZMBMGByqGSM49AgEGCCqGSM49AwEHA0IABJh6CmvLUBgFFNU0vUKlOVtE6djd17L5SuwX0LemFisBM3dkd/3cyjxFA3Qo5S46fX0/ihY0VZ7mfb9KF703t5OjWDBWMA4GA1UdDwEB/wQEAwIHgDAVBgNVHSUEDjAMBgorBgEEAYPoXgIBMAwGA1UdEwEB/wQCMAAwHwYDVR0jBBgwFoAUzlHiBIFOZFsj+OPEz5o+nMHXXMIwCgYIKoZIzj0EAwMDZwAwZAIwMXMdFJ4BetLLVY7ORuE9noqbbAZOZn/aArXyTwFAZfKrPzxF2vPoJNf1+UCdg1XGAjBwX1zd9WGqYkqmL5SFqw1QySjr1zJfpJM9+1rdDwSPLMOPOjKuiXjoU/pUUeG9RwmhY3BhZFkNngAAAAAAAAAAAAAAAAAAAAAAAAAAAAAAAAAAAAAAAAAAAAAAAAAAAAAAAAAAAAAAAAAAAAAAAAAAAAAAAAAAAAAAAAAAAAAAAAAAAAAAAAAAAAAAAAAAAAAAAAAAAAAAAAAAAAAAAAAAAAAAAAAAAAAAAAAAAAAAAAAAAAAAAAAAAAAAAAAAAAAAAAAAAAAAAAAAAAAAAAAAAAAAAAAAAAAAAAAAAAAAAAAAAAAAAAAAAAAAAAAAAAAAAAAAAAAAAAAAAAAAAAAAAAAAAAAAAAAAAAAAAAAAAAAAAAAAAAAAAAAAAAAAAAAAAAAAAAAAAAAAAAAAAAAAAAAAAAAAAAAAAAAAAAAAAAAAAAAAAAAAAAAAAAAAAAAAAAAAAAAAAAAAAAAAAAAAAAAAAAAAAAAAAAAAAAAAAAAAAAAAAAAAAAAAAAAAAAAAAAAAAAAAAAAAAAAAAAAAAAAAAAAAAAAAAAAAAAAAAAAAAAAAAAAAAAAAAAAAAAAAAAAAAAAAAAAAAAAAAAAAAAAAAAAAAAAAAAAAAAAAAAAAAAAAAAAAAAAAAAAAAAAAAAAAAAAAAAAAAAAAAAAAAAAAAAAAAAAAAAAAAAAAAAAAAAAAAAAAAAAAAAAAAAAAAAAAAAAAAAAAAAAAAAAAAAAAAAAAAAAAAAAAAAAAAAAAAAAAAAAAAAAAAAAAAAAAAAAAAAAAAAAAAAAAAAAAAAAAAAAAAAAAAAAAAAAAAAAAAAAAAAAAAAAAAAAAAAAAAAAAAAAAAAAAAAAAAAAAAAAAAAAAAAAAAAAAAAAAAAAAAAAAAAAAAAAAAAAAAAAAAAAAAAAAAAAAAAAAAAAAAAAAAAAAAAAAAAAAAAAAAAAAAAAAAAAAAAAAAAAAAAAAAAAAAAAAAAAAAAAAAAAAAAAAAAAAAAAAAAAAAAAAAAAAAAAAAAAAAAAAAAAAAAAAAAAAAAAAAAAAAAAAAAAAAAAAAAAAAAAAAAAAAAAAAAAAAAAAAAAAAAAAAAAAAAAAAAAAAAAAAAAAAAAAAAAAAAAAAAAAAAAAAAAAAAAAAAAAAAAAAAAAAAAAAAAAAAAAAAAAAAAAAAAAAAAAAAAAAAAAAAAAAAAAAAAAAAAAAAAAAAAAAAAAAAAAAAAAAAAAAAAAAAAAAAAAAAAAAAAAAAAAAAAAAAAAAAAAAAAAAAAAAAAAAAAAAAAAAAAAAAAAAAAAAAAAAAAAAAAAAAAAAAAAAAAAAAAAAAAAAAAAAAAAAAAAAAAAAAAAAAAAAAAAAAAAAAAAAAAAAAAAAAAAAAAAAAAAAAAAAAAAAAAAAAAAAAAAAAAAAAAAAAAAAAAAAAAAAAAAAAAAAAAAAAAAAAAAAAAAAAAAAAAAAAAAAAAAAAAAAAAAAAAAAAAAAAAAAAAAAAAAAAAAAAAAAAAAAAAAAAAAAAAAAAAAAAAAAAAAAAAAAAAAAAAAAAAAAAAAAAAAAAAAAAAAAAAAAAAAAAAAAAAAAAAAAAAAAAAAAAAAAAAAAAAAAAAAAAAAAAAAAAAAAAAAAAAAAAAAAAAAAAAAAAAAAAAAAAAAAAAAAAAAAAAAAAAAAAAAAAAAAAAAAAAAAAAAAAAAAAAAAAAAAAAAAAAAAAAAAAAAAAAAAAAAAAAAAAAAAAAAAAAAAAAAAAAAAAAAAAAAAAAAAAAAAAAAAAAAAAAAAAAAAAAAAAAAAAAAAAAAAAAAAAAAAAAAAAAAAAAAAAAAAAAAAAAAAAAAAAAAAAAAAAAAAAAAAAAAAAAAAAAAAAAAAAAAAAAAAAAAAAAAAAAAAAAAAAAAAAAAAAAAAAAAAAAAAAAAAAAAAAAAAAAAAAAAAAAAAAAAAAAAAAAAAAAAAAAAAAAAAAAAAAAAAAAAAAAAAAAAAAAAAAAAAAAAAAAAAAAAAAAAAAAAAAAAAAAAAAAAAAAAAAAAAAAAAAAAAAAAAAAAAAAAAAAAAAAAAAAAAAAAAAAAAAAAAAAAAAAAAAAAAAAAAAAAAAAAAAAAAAAAAAAAAAAAAAAAAAAAAAAAAAAAAAAAAAAAAAAAAAAAAAAAAAAAAAAAAAAAAAAAAAAAAAAAAAAAAAAAAAAAAAAAAAAAAAAAAAAAAAAAAAAAAAAAAAAAAAAAAAAAAAAAAAAAAAAAAAAAAAAAAAAAAAAAAAAAAAAAAAAAAAAAAAAAAAAAAAAAAAAAAAAAAAAAAAAAAAAAAAAAAAAAAAAAAAAAAAAAAAAAAAAAAAAAAAAAAAAAAAAAAAAAAAAAAAAAAAAAAAAAAAAAAAAAAAAAAAAAAAAAAAAAAAAAAAAAAAAAAAAAAAAAAAAAAAAAAAAAAAAAAAAAAAAAAAAAAAAAAAAAAAAAAAAAAAAAAAAAAAAAAAAAAAAAAAAAAAAAAAAAAAAAAAAAAAAAAAAAAAAAAAAAAAAAAAAAAAAAAAAAAAAAAAAAAAAAAAAAAAAAAAAAAAAAAAAAAAAAAAAAAAAAAAAAAAAAAAAAAAAAAAAAAAAAAAAAAAAAAAAAAAAAAAAAAAAAAAAAAAAAAAAAAAAAAAAAAAAAAAAAAAAAAAAAAAAAAAAAAAAAAAAAAAAAAAAAAAAAAAAAAAAAAAAAAAAAAAAAAAAAAAAAAAAAAAAAAAAAAAAAAAAAAAAAAAAAAAAAAAAAAAAAAAAAAAAAAAAAAAAAAAAAAAAAAAAAAAAAAAAAAAAAAAAAAAAAAAAAAAAAAAAAAAAAAAAAAAAAAAAAAAAAAAAAAAAAAAAAAAAAAAAAAAAAAAAAAAAAAAAAAAAAAAAAAAAAAAAAAAAAAAAAAAAAAAAAAAAAAAAAAAAAAAAAAAAAAAAAAAAAAAAAAAAAAAAAAAAAAAAAAAAAAAAAAAAAAAAAAAAAAAAAAAAAAAAAAAAAAAAAAAAAAAAAAAAAAAAAAAAAAAAAAAAAAAAAAAAAAAAAAAAAAAAAAAAAAAAAAAAAAAAAAAAAAAAAAAAAAAAAAAAAAAAAAAAAAAAAAAAAAAAAAAAAAAAAAAAAAAAAAAAAAAAAAAAAAAAAAAAAAAAAAAAAAAAAAAAAAAAAAAAAAAAAAAAAAAAAAAAAAAAAAAAAAAAAAAAAAAAAAAAAAAAAAAAAAAAAAAAAAAAAAAAAAAAAAAAAAAAAAAAAAAAAAAAAAAAAAAAAAAAAAAAAAAAAAAAAAAAAAAAAAAAAAAAAAAAAAAAAAAAAAAAAAAAAAAAAAAAAAAAAAAAAAAAAAAAAAAAAAAAAAAAAAAAAAAAAAAAAAAAAAAAAAAAAAAAAAAAAAAAAAAAAAAAAAAAAAAAAAAAAAAAAAAAAAAAAAAAAAAAAAAAAAAAAAAAAAAAAAAAAAAAAAAAAAAAAAAAAAAAAAAAAAAAAAAAAAAAAAAAAAAAAAAAAAAAAAAAAAAAAAAAAAAAAAAAAAAAAAAAAAAAAAAAAAAAAAAAAAAAAAAAAAAAAAAAAAAAAAAAAAAAAAAAAAAAAAAAAAAAAAAAAAAAAAAAAAAAAAAAAAAAAAAAAAAAAAAAAAAAAAAAAAAAAAAAAAAAAAAAAAAAAAAAAAAAAAAAAAAAAAAAAAAAAAAAAAAAAAAAAAAAAAAAAAAAAAAAAAAAAAAAAAAAAAAAAAAAAAAAAAAAAAAAAAAAAAAAAAAAAAAAAAAAAAAAAAAAAAAAAAAAAAAAAAAAAAAAAAAAAAAAAAAAAAAAAAAAAAAAAAAAAAAAAAAAAAAAAAAAAAAAAAAAAAAAAAAAAAAAAAAAAAAAAAAAAAAAAAAAAAAAAAAAAAAAAAAAAAAAAAAAAAAAAAAAAAAAAAAAAAAAAAAAAAAAAAAAAAAAAAAAAAAAAAAAAAAAAAAAAAAAAAAAAAAAAAAAAAAAAAAAAAAAAAAAAAAAAAAAAAAAAAAAAAAAAAAAAAAAAAAAAAAAAAAAAAAAAAAAAAAAAAAAAAAAAAAAAAAAAAAAAAAAAAAAAAAAAAAAAAAAAAAAAAAAAAAAAAAAAAAAAAAAAAAAAAAAAAAAAAAAAAAAAAAAAAAAAAAAAAAAAAAAAAAAAAAAAAAAAAAAAAAAAAAAAAAAAAAAAAAAAAAAAAAAAAAAAAAAAAAAAAAAAAAAAAAAAAAAAAAAAAAAAAAAAAAAAAAAAAAAAAAAAAAAAAAAAAAAAAAAAAAAAAAAAAAAAAAAAAAAAAAAAAAAAAAAAAAAAAAAAAAAAAAAAAAAAAAAAAAAAAAAAAAAAAAAAAAAAAAAAAAAAAAAAAAAAAAAAAAAAAAAAAAAAAAAAAAAAAAAAAAAAAAAAAAAAAAAAAAAAAAAAAAAAAAAAAAAAAAAAAAAAAAAAAAAAAAAAAAAAAAAAAAAAAAAAAAAAAAAAAAAAAAAAAAAAAAAAAAAAAAAAAAAAAAAAAAAAAAAAAAAAAAAAAAAAAAAAAAAAAAAAAAAAAAAAAAAAAAAAAAAAAAAAAAAAAAAAAAAAAAAAAAAAAAAAAAAAAAAAAAAAAAAAAAAAAAAAAAAAAAAAAAAAAAAAAAAAAAAAAAAAAAAAAAAAAAAAAAAAAAAAAAAAAAAAAAAAAAAAAAAAAAAAAAAAAAAAAAAAAAAAAAAAAAAAAAAAAAAAAAAAAAAAAAAAAAAAAAAAAAAAAAAAAAAAAAAAAAAAAAAAAAAAAAAAAAAAAAAAAAAAAAAAAPZYQOzasol9uKNbw/kZuxt5GnniFicz+XcgUm9kpDQPH0bhEa9uMMMAMsI7YVyl+vyE+Klv4r8qNlPQSn0zfDfyd04=</c2pa:manifest></metadata><a xlink:href="https://datasets.datalad.org/?dir=/repronim/containers" href="https://datasets.datalad.org/?dir=/repronim/containers" target="_blank"><path d="M114 76L114 92A20 20 0 0 1 94 112L26 112A20 20 0 0 1 6 92L6 28A20 20 0 0 1 26 8L94 8A20 20 0 0 1 114 28L114 44" fill="none" stroke="#0F1F3D" stroke-width="5" stroke-linecap="round"></path><g transform="translate(60 60) scale(0.44) translate(-130 -141)"><svg overflow="visible" xmlns:xlink="http://www.w3.org/1999/xlink" version="1.1" id="Layer_1" width="270" height="270" viewBox="0 0 270.00001 270.00001" enable-background="new 0 0 820.8 640.8" xml:space="preserve" style="overflow:visible" xmlns:c2pa="http://c2pa.org/manifest"><metadata></metadata><defs id="defs181"><defs id="defs161"><rect height="640.79999" width="820.79999" id="XMLID_7_" x="0" y="0"></rect></defs><clipPath id="XMLID_12_"><use id="use165" xlink:href="#XMLID_7_" x="0" y="0" width="100%" height="100%"></use></clipPath><defs id="defs101"><rect height="640.79999" width="820.79999" id="XMLID_5_" x="0" y="0"></rect></defs><clipPath id="XMLID_11_"><use id="use105" xlink:href="#XMLID_5_" x="0" y="0" width="100%" height="100%"></use></clipPath></defs><g id="g3433" transform="translate(-40.913599,-46.006615)"><polygon id="polygon3" points="104.987,212.772 108.156,212.772 108.156,228.492 97.886,228.492 92.1,223.42 92.1,203.403 95.269,203.403 95.269,222.269 99.199,225.715 104.987,225.715 " style="fill:#43b5e8"></polygon><polygon id="polygon5" points="99.902,243.588 100.34,227.071 103.507,227.135 103.102,242.465 107.228,246.083 118.769,246.083 118.769,248.859 105.916,248.859 " style="fill:#43b5e8"></polygon><polygon id="polygon7" points="164.46,253.488 161.366,253.488 156.085,258.673 120.062,258.673 108.61,248.444 110.872,246.498 121.393,255.896 154.666,255.896 159.948,250.711 164.46,250.711 " style="fill:#43b5e8"></polygon><polygon id="polygon9" points="124.424,264.654 124.424,257.284 127.593,257.284 127.593,263.244 132.02,266.079 152.995,266.079 152.995,268.856 130.984,268.856 " style="fill:#43b5e8"></polygon><polygon id="polygon11" points="147.423,277.929 159.664,277.929 165.622,272.465 165.622,263.765 168.791,263.765 168.791,273.58 161.018,280.707 146.215,280.707 138.369,274.57 138.369,267.467 141.538,267.467 141.538,273.326 " style="fill:#43b5e8"></polygon><rect id="rect13" height="28.885" width="3.1689999" y="211.92" x="171.369" style="fill:#43b5e8"></rect><polyline id="polyline15" points="183.157,212.846 186.326,212.846 186.326,203.696 183.157,203.697 " style="fill:#43b5e8"></polyline><rect id="rect17" height="8.7799997" width="3.1700001" y="203.603" x="159.283" style="fill:#43b5e8"></rect><polygon id="polygon19" points="132.15,223.863 157.189,223.863 162.453,229.575 162.453,236.937 148.848,248.859 128.861,248.859 128.861,241.86 137.435,234.972 143.544,234.972 143.544,237.75 138.667,237.75 132.03,243.083 132.03,246.083 147.536,246.083 159.284,235.786 159.284,230.556 155.675,226.64 133.39,226.64 119.416,237.959 113.898,237.749 114.035,234.973 118.235,235.133 " style="fill:#43b5e8"></polygon><rect id="rect21" height="23.700001" width="3.1689999" y="212.84599" x="117.452" style="fill:#43b5e8"></rect><polygon id="polygon23" points="119.036,215.901 139.276,215.901 143.228,212.289 143.228,203.404 146.397,203.404 146.397,213.405 140.628,218.679 119.036,218.679 " style="fill:#43b5e8"></polygon><polygon id="polygon25" points="185.429,277.929 198.846,277.929 204.496,272.657 204.496,267.467 207.665,267.467 207.665,273.757 200.216,280.707 184.056,280.707 176.82,273.941 176.82,263.765 179.988,263.765 179.988,272.843 " style="fill:#43b5e8"></polygon><polygon id="polygon27" points="193.616,266.079 214.342,266.079 218.018,263.15 218.018,257.284 221.187,257.284 221.187,264.378 215.567,268.856 193.616,268.856 " style="fill:#43b5e8"></polygon><g id="g29"><defs id="defs31"><rect height="640.79999" width="820.79999" id="XMLID_1_" x="0" y="0"></rect></defs><clipPath id="XMLID_9_"><use id="use35" xlink:href="#XMLID_1_" x="0" y="0" width="100%" height="100%"></use></clipPath><path id="path37" d="m 225.577,258.672 h -35.042 l -7.259,-4.958 c -0.849,-0.073 -1.728,-0.095 -1.988,-0.044 0,0 0.061,-0.013 0.148,-0.051 l -0.417,-2.484 c 0.263,-0.116 0.062,-0.466 3.075,-0.136 l 0.432,0.047 7.099,4.849 h 32.565 l 9.882,-9.368 2.328,1.886 z" clip-path="url(#XMLID_9_)" style="fill:#43b5e8"></path><polygon id="polygon39" points="226.574,246.083 238.615,246.083 242.314,242.988 242.314,227.104 245.483,227.104 245.483,244.176 239.886,248.859 226.574,248.859 " clip-path="url(#XMLID_9_)" style="fill:#43b5e8"></polygon><polygon id="polygon41" points="249.708,222.493 249.708,203.696 252.877,203.696 252.877,223.566 247.768,228.492 237.243,228.492 237.243,212.846 240.412,212.846 240.412,225.715 246.366,225.715 " clip-path="url(#XMLID_9_)" style="fill:#43b5e8"></polygon><polygon id="polygon43" points="202.429,237.75 202.55,234.973 208.664,235.179 216.539,242.081 216.539,248.859 196.763,248.859 183.157,236.937 183.157,228.477 189.675,223.863 213.679,223.863 227.228,234.993 232.128,235.158 232.007,237.935 225.922,237.729 212.427,226.64 190.796,226.64 186.326,229.803 186.326,235.786 198.074,246.083 213.37,246.083 213.37,243.232 207.301,237.913 " clip-path="url(#XMLID_9_)" style="fill:#43b5e8"></polygon><rect id="rect45" height="24.441" width="3.1689999" clip-path="url(#XMLID_9_)" y="211.92" x="224.989" style="fill:#43b5e8"></rect><polygon id="polygon47" points="199.003,213.387 199.003,203.404 202.172,203.404 202.172,212.306 205.933,215.901 226.574,215.901 226.574,218.679 204.539,218.679 " clip-path="url(#XMLID_9_)" style="fill:#43b5e8"></polygon><path id="path49" d="m 110.722,210.124 c 0,2.104 -1.948,3.81 -4.349,3.81 -2.401,0 -4.349,-1.706 -4.349,-3.81 0,-2.105 1.948,-3.811 4.349,-3.811 2.401,-10e-4 4.349,1.706 4.349,3.811 m -4.349,-1.853 c -1.167,0 -2.113,0.829 -2.113,1.852 0,1.022 0.946,1.851 2.113,1.851 1.167,0 2.112,-0.829 2.112,-1.851 0,-1.022 -0.945,-1.852 -2.112,-1.852" clip-path="url(#XMLID_9_)" style="fill:#43b5e8"></path><path id="path51" d="m 123.385,210.124 c 0,2.104 -1.947,3.81 -4.349,3.81 -2.401,0 -4.348,-1.706 -4.348,-3.81 0,-2.105 1.947,-3.811 4.348,-3.811 2.402,-10e-4 4.349,1.706 4.349,3.811 m -4.349,-1.853 c -1.166,0 -2.112,0.829 -2.112,1.852 0,1.022 0.946,1.851 2.112,1.851 1.167,0 2.113,-0.829 2.113,-1.851 0,-1.022 -0.946,-1.852 -2.113,-1.852" clip-path="url(#XMLID_9_)" style="fill:#43b5e8"></path><path id="path53" d="m 116.065,236.362 c 0,2.104 -1.947,3.811 -4.348,3.811 -2.402,0 -4.349,-1.707 -4.349,-3.811 0,-2.105 1.947,-3.811 4.349,-3.811 2.401,0 4.348,1.706 4.348,3.811 m -4.348,-1.852 c -1.167,0 -2.113,0.829 -2.113,1.852 0,1.022 0.946,1.851 2.113,1.851 1.166,0 2.112,-0.829 2.112,-1.851 0,-1.023 -0.946,-1.852 -2.112,-1.852" clip-path="url(#XMLID_9_)" style="fill:#43b5e8"></path><path id="path55" d="m 150.762,236.547 c 0,2.105 -1.947,3.811 -4.348,3.811 -2.402,0 -4.349,-1.706 -4.349,-3.811 0,-2.105 1.947,-3.811 4.349,-3.811 2.401,0 4.348,1.706 4.348,3.811 m -4.348,-1.852 c -1.167,0 -2.113,0.829 -2.113,1.852 0,1.022 0.946,1.851 2.113,1.851 1.166,0 2.112,-0.829 2.112,-1.851 0,-1.023 -0.946,-1.852 -2.112,-1.852" clip-path="url(#XMLID_9_)" style="fill:#43b5e8"></path><path id="path57" d="m 126.466,247.471 c 0,2.105 -1.948,3.811 -4.349,3.811 -2.401,0 -4.349,-1.706 -4.349,-3.811 0,-2.105 1.948,-3.811 4.349,-3.811 2.402,0 4.349,1.706 4.349,3.811 m -4.349,-1.852 c -1.167,0 -2.112,0.829 -2.112,1.852 0,1.022 0.945,1.851 2.112,1.851 1.167,0 2.113,-0.829 2.113,-1.851 0,-1.023 -0.946,-1.852 -2.113,-1.852" clip-path="url(#XMLID_9_)" style="fill:#43b5e8"></path><path id="path59" d="m 160.692,267.576 c 0,2.104 -1.947,3.811 -4.348,3.811 -2.402,0 -4.349,-1.707 -4.349,-3.811 0,-2.105 1.947,-3.811 4.349,-3.811 2.401,0 4.348,1.706 4.348,3.811 m -4.348,-1.852 c -1.167,0 -2.113,0.829 -2.113,1.852 0,1.022 0.946,1.851 2.113,1.851 1.167,0 2.112,-0.829 2.112,-1.851 0,-1.023 -0.945,-1.852 -2.112,-1.852" clip-path="url(#XMLID_9_)" style="fill:#43b5e8"></path><path id="path61" d="m 171.555,261.096 c 0,2.104 -1.947,3.81 -4.348,3.81 -2.402,0 -4.349,-1.706 -4.349,-3.81 0,-2.105 1.947,-3.811 4.349,-3.811 2.401,0 4.348,1.706 4.348,3.811 m -4.348,-1.852 c -1.167,0 -2.113,0.829 -2.113,1.852 0,1.022 0.946,1.851 2.113,1.851 1.166,0 2.112,-0.829 2.112,-1.851 0,-1.023 -0.946,-1.852 -2.112,-1.852" clip-path="url(#XMLID_9_)" style="fill:#43b5e8"></path><path id="path63" d="m 182.752,261.096 c 0,2.104 -1.947,3.81 -4.348,3.81 -2.402,0 -4.349,-1.706 -4.349,-3.81 0,-2.105 1.947,-3.811 4.349,-3.811 2.402,0 4.348,1.706 4.348,3.811 m -4.348,-1.852 c -1.167,0 -2.113,0.829 -2.113,1.852 0,1.022 0.946,1.851 2.113,1.851 1.166,0 2.112,-0.829 2.112,-1.851 0.001,-1.023 -0.946,-1.852 -2.112,-1.852" clip-path="url(#XMLID_9_)" style="fill:#43b5e8"></path><path id="path65" d="m 171.555,252.023 c 0,2.105 -1.947,3.811 -4.348,3.811 -2.402,0 -4.349,-1.706 -4.349,-3.811 0,-2.105 1.947,-3.811 4.349,-3.811 2.401,0 4.348,1.706 4.348,3.811 m -4.348,-1.852 c -1.167,0 -2.113,0.829 -2.113,1.852 0,1.022 0.946,1.851 2.113,1.851 1.166,0 2.112,-0.829 2.112,-1.851 0,-1.023 -0.946,-1.852 -2.112,-1.852" clip-path="url(#XMLID_9_)" style="fill:#43b5e8"></path><path id="path67" d="m 182.752,252.023 c 0,2.105 -1.947,3.811 -4.348,3.811 -2.402,0 -4.349,-1.706 -4.349,-3.811 0,-2.105 1.947,-3.811 4.349,-3.811 2.402,0 4.348,1.706 4.348,3.811 m -4.348,-1.852 c -1.167,0 -2.113,0.829 -2.113,1.852 0,1.022 0.946,1.851 2.113,1.851 1.166,0 2.112,-0.829 2.112,-1.851 0.001,-1.023 -0.946,-1.852 -2.112,-1.852" clip-path="url(#XMLID_9_)" style="fill:#43b5e8"></path><path id="path69" d="m 195.024,267.468 c 0,2.104 -1.948,3.811 -4.349,3.811 -2.401,0 -4.349,-1.707 -4.349,-3.811 0,-2.105 1.948,-3.811 4.349,-3.811 2.401,0 4.349,1.706 4.349,3.811 m -4.349,-1.852 c -1.167,0 -2.112,0.829 -2.112,1.852 0,1.022 0.945,1.851 2.112,1.851 1.167,0 2.113,-0.829 2.113,-1.851 0,-1.023 -0.946,-1.852 -2.113,-1.852" clip-path="url(#XMLID_9_)" style="fill:#43b5e8"></path><path id="path71" d="m 177.302,242.951 c 0,2.104 -1.948,3.811 -4.349,3.811 -2.401,0 -4.349,-1.707 -4.349,-3.811 0,-2.105 1.948,-3.811 4.349,-3.811 2.401,0 4.349,1.706 4.349,3.811 m -4.349,-1.852 c -1.167,0 -2.112,0.829 -2.112,1.852 0,1.022 0.945,1.851 2.112,1.851 1.167,0 2.112,-0.829 2.112,-1.851 0,-1.023 -0.945,-1.852 -2.112,-1.852" clip-path="url(#XMLID_9_)" style="fill:#43b5e8"></path><path id="path73" d="m 203.841,236.362 c 0,2.104 -1.947,3.811 -4.349,3.811 -2.401,0 -4.348,-1.707 -4.348,-3.811 0,-2.105 1.947,-3.811 4.348,-3.811 2.403,0 4.349,1.706 4.349,3.811 m -4.349,-1.852 c -1.166,0 -2.112,0.829 -2.112,1.852 0,1.022 0.946,1.851 2.112,1.851 1.167,0 2.113,-0.829 2.113,-1.851 0,-1.023 -0.946,-1.852 -2.113,-1.852" clip-path="url(#XMLID_9_)" style="fill:#43b5e8"></path><path id="path75" d="m 239.585,236.362 c 0,2.104 -1.948,3.811 -4.349,3.811 -2.401,0 -4.349,-1.707 -4.349,-3.811 0,-2.105 1.948,-3.811 4.349,-3.811 2.402,0 4.349,1.706 4.349,3.811 m -4.349,-1.852 c -1.167,0 -2.113,0.829 -2.113,1.852 0,1.022 0.946,1.851 2.113,1.851 1.167,0 2.112,-0.829 2.112,-1.851 10e-4,-1.023 -0.945,-1.852 -2.112,-1.852" clip-path="url(#XMLID_9_)" style="fill:#43b5e8"></path><path id="path77" d="m 228.138,247.471 c 0,2.105 -1.948,3.811 -4.349,3.811 -2.401,0 -4.349,-1.706 -4.349,-3.811 0,-2.105 1.948,-3.811 4.349,-3.811 2.401,0 4.349,1.706 4.349,3.811 m -4.349,-1.852 c -1.167,0 -2.113,0.829 -2.113,1.852 0,1.022 0.946,1.851 2.113,1.851 1.167,0 2.112,-0.829 2.112,-1.851 0,-1.023 -0.944,-1.852 -2.112,-1.852" clip-path="url(#XMLID_9_)" style="fill:#43b5e8"></path><path id="path79" d="m 231.25,210.124 c 0,2.104 -1.948,3.81 -4.349,3.81 -2.401,0 -4.349,-1.706 -4.349,-3.81 0,-2.105 1.948,-3.811 4.349,-3.811 2.402,-10e-4 4.349,1.706 4.349,3.811 m -4.349,-1.853 c -1.167,0 -2.112,0.829 -2.112,1.852 0,1.022 0.945,1.851 2.112,1.851 1.167,0 2.113,-0.829 2.113,-1.851 10e-4,-1.022 -0.946,-1.852 -2.113,-1.852" clip-path="url(#XMLID_9_)" style="fill:#43b5e8"></path><path id="path81" d="m 243.308,210.124 c 0,2.104 -1.947,3.81 -4.348,3.81 -2.402,0 -4.349,-1.706 -4.349,-3.81 0,-2.105 1.947,-3.811 4.349,-3.811 2.401,-10e-4 4.348,1.706 4.348,3.811 m -4.348,-1.853 c -1.167,0 -2.113,0.829 -2.113,1.852 0,1.022 0.946,1.851 2.113,1.851 1.166,0 2.112,-0.829 2.112,-1.851 0,-1.022 -0.946,-1.852 -2.112,-1.852" clip-path="url(#XMLID_9_)" style="fill:#43b5e8"></path><path id="path83" d="m 177.302,209.514 c 0,2.104 -1.948,3.81 -4.349,3.81 -2.401,0 -4.349,-1.706 -4.349,-3.81 0,-2.105 1.948,-3.811 4.349,-3.811 2.401,0 4.349,1.706 4.349,3.811 m -4.349,-1.852 c -1.167,0 -2.112,0.829 -2.112,1.852 0,1.022 0.945,1.851 2.112,1.851 1.167,0 2.112,-0.829 2.112,-1.851 0,-1.023 -0.945,-1.852 -2.112,-1.852" clip-path="url(#XMLID_9_)" style="fill:#43b5e8"></path><path id="path85" d="m 165.041,215.786 c 0,2.105 -1.947,3.811 -4.349,3.811 -2.401,0 -4.348,-1.706 -4.348,-3.811 0,-2.105 1.947,-3.811 4.348,-3.811 2.402,0 4.349,1.706 4.349,3.811 m -4.35,-1.852 c -1.166,0 -2.112,0.829 -2.112,1.852 0,1.023 0.946,1.851 2.112,1.851 1.167,0 2.113,-0.828 2.113,-1.851 0,-1.023 -0.946,-1.852 -2.113,-1.852" clip-path="url(#XMLID_9_)" style="fill:#43b5e8"></path><path id="path87" d="m 189.091,215.786 c 0,2.105 -1.948,3.811 -4.349,3.811 -2.401,0 -4.349,-1.706 -4.349,-3.811 0,-2.105 1.948,-3.811 4.349,-3.811 2.402,0 4.349,1.706 4.349,3.811 m -4.349,-1.852 c -1.167,0 -2.113,0.829 -2.113,1.852 0,1.023 0.946,1.851 2.113,1.851 1.167,0 2.112,-0.828 2.112,-1.851 0,-1.023 -0.945,-1.852 -2.112,-1.852" clip-path="url(#XMLID_9_)" style="fill:#43b5e8"></path></g><g id="g89"><defs id="defs91"><rect height="99.205002" width="182.188" y="68.278" x="78.482002" id="XMLID_3_"></rect></defs><clipPath id="XMLID_10_"><use id="use95" xlink:href="#XMLID_3_" x="0" y="0" width="100%" height="100%"></use></clipPath><path id="path97" d="m 254.634,205.125 c -0.076,-0.315 -0.154,-0.631 -0.24,-0.948 -0.134,-0.494 -0.034,-1.016 0.283,-1.442 11.781,-15.814 3.603,-28.107 -2.551,-34.173 -2.198,-2.166 -2.722,-5.21 -1.335,-7.756 2.967,-5.449 3.174,-11.411 0.598,-17.244 -4.129,-9.344 -10.676,-12.85 -15.442,-14.145 -3.395,-0.922 -5.787,-3.595 -5.951,-6.649 -0.338,-6.266 -3.065,-15.152 -14.137,-21.905 -6.869,-4.189 -13.952,-6.313 -21.054,-6.313 -9.474,0 -16.952,3.783 -21.556,6.956 -0.269,0.185 -0.528,0.378 -0.778,0.576 -0.814,0.645 -2.02,0.645 -2.835,0 -0.25,-0.198 -0.508,-0.391 -0.777,-0.576 -4.604,-3.173 -12.082,-6.956 -21.557,-6.956 -7.1,0 -14.183,2.124 -21.053,6.313 -11.073,6.753 -13.799,15.639 -14.137,21.905 -0.164,3.054 -2.557,5.727 -5.951,6.649 -4.767,1.295 -11.315,4.802 -15.442,14.145 -2.575,5.832 -2.369,11.794 0.599,17.245 1.386,2.545 0.861,5.589 -1.336,7.755 -6.153,6.067 -14.331,18.358 -2.552,34.173 0.318,0.426 0.417,0.947 0.284,1.442 -0.086,0.317 -0.164,0.633 -0.241,0.948 -0.553,1.907 -0.648,3.458 -0.647,4.294 -0.503,8.655 3.746,16.115 7.933,21.272 4.172,5.138 11,8.411 19.536,9.298 0.879,0.092 1.605,0.641 1.776,1.402 1.056,4.697 4.407,13.818 14.855,19.541 5.213,2.856 12.19,4.303 20.737,4.303 2.588,0 5.33,-0.134 8.149,-0.4 3.784,-0.356 7.177,-1.732 9.84,-3.796 0.809,-0.626 1.995,-0.626 2.804,0 2.663,2.064 6.055,3.44 9.84,3.796 2.819,0.266 5.56,0.4 8.149,0.4 h 0.001 c 8.547,0 15.523,-1.448 20.735,-4.303 10.45,-5.723 13.801,-14.845 14.857,-19.542 0.171,-0.761 0.898,-1.31 1.776,-1.402 8.534,-0.886 15.362,-4.158 19.535,-9.297 4.188,-5.157 8.436,-12.618 7.933,-21.274 0.002,-0.835 -0.094,-2.386 -0.648,-4.292 m -95.781,51.88 c -2.501,0.236 -4.92,0.356 -7.189,0.356 -6.838,0 -12.212,-1.046 -15.974,-3.106 -4.89,-2.679 -8.3,-6.725 -10.131,-12.029 -0.111,-0.322 -0.234,-0.638 -0.369,-0.948 -0.399,-0.921 0.054,-1.94 1.077,-2.346 5.015,-1.987 11.242,-5.616 16.389,-12.203 0.077,-0.059 0.163,-0.103 0.236,-0.167 0.048,-0.041 4.919,-4.042 10.909,-2.714 3.549,0.791 7.194,-2.369 4.871,-6.334 -0.25,-0.427 -0.678,-0.771 -1.199,-0.922 -2.068,-0.602 -4.021,-0.869 -5.841,-0.904 -1.377,-0.025 -2.376,-1.148 -1.992,-2.308 0.247,-0.741 0.48,-1.505 0.692,-2.298 0.131,-0.486 0.016,-1.006 -0.293,-1.425 -2.792,-3.789 -7.783,-2.542 -8.728,0.586 -6.249,20.704 -19.9,22.623 -26.25,22.102 -0.158,-0.013 -0.305,-0.045 -0.455,-0.091 -0.625,-0.19 -1.264,-0.351 -1.918,-0.478 -4.741,-0.921 -8.309,-2.821 -10.607,-5.651 -4.379,-5.393 -6.477,-10.711 -6.296,-15.876 0.021,-0.15 0.012,-0.306 0.013,-0.459 0.06,-0.985 0.213,-1.963 0.442,-2.936 0.017,-0.072 0.036,-0.142 0.061,-0.213 0.711,-2.055 2.429,-4.85 6.591,-7.019 0.549,-0.286 0.945,-0.763 1.04,-1.316 0.786,-4.547 -3.948,-6.51 -7.026,-4.676 -0.532,0.317 -1.036,0.642 -1.514,0.973 -1.059,0.735 -2.65,0.395 -3.167,-0.699 -3.355,-7.11 -1.875,-13.852 4.473,-20.111 0.538,-0.53 1.022,-1.088 1.466,-1.668 0.053,-0.052 2.966,-2.974 7.639,-6.07 0.265,-0.176 0.572,-0.293 0.899,-0.342 3.149,-0.468 13.667,-1.532 18.815,4.084 0.887,0.969 2.191,1.472 3.505,1.472 2.166,0 4.655,-1.688 4.522,-3.724 -0.15,-2.281 -2.112,-3.96 -4.006,-5.325 -0.994,-0.716 -2.065,-1.348 -3.189,-1.895 -0.546,-0.265 -1.104,-0.51 -1.673,-0.735 -0.331,-0.131 -1.147,-0.59 -1.503,-0.542 1.323,-0.177 2.724,-0.049 3.999,-0.464 1.447,-0.471 2.224,-1.821 2.423,-3.106 0.381,-2.453 -1.905,-4.647 -4.734,-4.512 -9.078,0.509 -16.808,3.835 -22.399,7.162 -1.053,0.627 -2.487,0.293 -3.035,-0.713 -1.901,-3.493 -2.012,-7.197 -0.328,-11.01 2.274,-5.145 5.545,-8.331 9.724,-9.467 1.091,-0.296 2.129,-0.686 3.107,-1.152 0.759,-0.361 1.696,-0.287 2.338,0.217 5.64,4.43 14.114,7.81 22.116,8.718 2.939,0.57 7.146,3.635 7.542,6.063 0.321,1.964 2.243,3.381 4.442,3.381 0.212,0 0.427,-0.014 0.641,-0.04 2.458,-0.309 4.163,-2.303 3.812,-4.456 -0.276,-1.69 -0.916,-3.278 -1.847,-4.71 -0.534,-0.822 -0.203,-1.933 0.731,-2.408 2.714,-1.382 4.885,-3.331 6.359,-5.799 0.246,-0.413 0.279,-0.902 0.135,-1.351 -1.371,-4.268 -6.468,-4.424 -8.469,-1.741 -1.684,2.26 -4.754,3.416 -9.12,3.434 h -0.097 c -6.868,0 -15.296,-2.994 -20.211,-6.878 -0.647,-0.511 -0.856,-1.324 -0.52,-2.03 0.753,-1.579 1.21,-3.28 1.306,-5.047 0.352,-6.541 3.816,-11.862 10.294,-15.812 5.335,-3.253 10.691,-4.903 15.921,-4.903 6.905,0 12.514,2.867 16.003,5.273 1.751,1.206 2.878,2.913 3.214,4.801 0.027,0.144 0.031,0.292 0.019,0.438 -0.022,0.25 -0.046,0.499 -0.046,0.753 l 0.001,74.597 c 0,1.276 -1.466,2.164 -2.816,1.686 -0.954,-0.338 -1.985,-0.627 -3.101,-0.855 -0.532,-0.109 -1.102,-0.012 -1.569,0.238 -4.344,2.321 -3.114,6.69 0.393,7.635 5.635,1.519 6.826,6.442 7.08,8.394 0.009,0.072 0.012,0.137 0.012,0.209 v 43.842 c 0,0.339 0.029,0.672 0.054,1.006 -0.52,3.439 -3.649,6.184 -7.694,6.564 m 81.176,-30.88 c -2.298,2.83 -5.867,4.731 -10.608,5.651 -0.38,0.074 -0.753,0.162 -1.123,0.259 -0.16,0.041 -0.315,0.066 -0.48,0.072 -4.53,0.176 -15.648,0.431 -24.03,-12.286 -0.304,-0.46 -0.822,-0.794 -1.418,-0.895 -5.125,-0.873 -7.554,3.179 -5.607,5.945 0.347,0.491 0.699,0.962 1.055,1.422 -4.311,-0.215 -9.156,0.034 -13.882,1.313 -0.538,0.145 -0.984,0.491 -1.244,0.929 -2.366,3.994 1.34,7.162 4.886,6.347 10.071,-2.301 21.208,1.177 21.368,1.228 0.2,0.064 0.403,0.111 0.605,0.147 0.218,0.037 0.432,0.099 0.625,0.194 1.948,0.956 3.852,1.666 5.636,2.191 1.112,0.327 1.659,1.421 1.224,2.374 -0.181,0.395 -0.343,0.798 -0.485,1.21 -1.832,5.303 -5.241,9.349 -10.132,12.029 -3.762,2.061 -9.136,3.106 -15.974,3.106 -2.27,0 -4.688,-0.12 -7.188,-0.356 -4.046,-0.38 -7.176,-3.125 -7.695,-6.564 0.025,-0.334 0.054,-0.667 0.054,-1.006 v -68.466 c 0,-1.499 1.981,-2.378 3.318,-1.443 1.206,0.843 2.529,1.599 3.981,2.235 0.644,0.282 1.33,0.416 2.006,0.416 2.71,0 4.615,-2.058 4.533,-4.349 -0.093,-2.597 -3.38,-3.304 -5.307,-4.729 -1.586,-1.173 -2.887,-2.619 -3.957,-4.171 -2.483,-3.602 -3.928,-7.843 -4.558,-12.003 -0.012,-0.079 -0.016,-0.151 -0.016,-0.231 v -43.005 c 0,-0.254 -0.025,-0.503 -0.046,-0.753 -0.012,-0.146 -0.008,-0.294 0.019,-0.438 0.336,-1.888 1.462,-3.595 3.213,-4.801 3.49,-2.406 9.099,-5.273 16.003,-5.273 5.232,0 10.588,1.65 15.922,4.903 6.478,3.95 9.942,9.271 10.294,15.812 0.097,1.784 0.562,3.502 1.328,5.095 0.296,0.616 0.166,1.329 -0.332,1.836 -3.008,3.062 -9.506,8.039 -19.536,7.393 -3.688,-0.222 -6.584,3.412 -3.57,6.988 0.342,0.405 0.864,0.683 1.436,0.742 1.38,0.141 2.699,0.205 3.977,0.205 11.442,0 19.215,-5.225 23.476,-9.205 0.647,-0.604 1.662,-0.741 2.497,-0.351 0.944,0.441 1.942,0.811 2.989,1.096 4.179,1.136 7.45,4.321 9.724,9.467 1.684,3.813 1.573,7.517 -0.328,11.009 -0.495,0.91 -0.679,2.065 -1.396,2.848 -0.57,0.622 -1.357,1.01 -2.205,1.269 -1.689,0.515 -3.513,0.491 -5.23,0.9 -3.115,0.741 -6.12,1.916 -8.737,3.583 -0.427,0.272 -0.946,0.405 -1.471,0.346 -1.848,-0.212 -4.8,-1.248 -6.781,-5.394 -0.248,-0.52 -0.735,-0.932 -1.352,-1.091 -5.046,-1.301 -7.897,2.558 -6.235,5.473 2.019,3.539 4.733,5.76 7.495,7.103 0.899,0.438 1.317,1.352 0.977,2.202 -0.432,1.083 -0.77,2.248 -0.989,3.509 -0.076,0.432 0.043,0.881 0.306,1.253 1.145,1.621 2.809,2.318 4.339,2.318 2.073,0 3.937,-1.265 4.389,-3.113 2.218,-9.078 14.853,-9.215 15.451,-9.216 0.348,0 0.682,-0.042 1.008,-0.108 0.732,1.615 1.785,3.141 3.16,4.497 6.348,6.259 7.829,13.002 4.473,20.111 -0.517,1.097 -2.11,1.432 -3.172,0.696 -0.832,-0.577 -1.746,-1.135 -2.748,-1.667 -0.478,-0.253 -1.066,-0.316 -1.607,-0.197 -4.952,1.094 -5.246,5.595 -2.209,7.405 3.483,2.076 4.998,4.587 5.656,6.486 0.025,0.071 0.045,0.141 0.062,0.214 0.227,0.966 0.381,1.937 0.442,2.915 0,0.141 -0.002,0.282 0.015,0.419 0.204,5.189 -1.893,10.533 -6.294,15.95" clip-path="url(#XMLID_10_)" style="fill:#43b5e8"></path></g></g></svg><text x="37.57" y="147" text-anchor="start" font-family="'IBM Plex Mono','DejaVu Sans Mono',Menlo,Consolas,monospace" font-weight="700" font-size="17" textLength="220.8" lengthAdjust="spacing"><tspan fill="#43b5e8">///</tspan><tspan fill="#f79127">repronim/containers</tspan></text></g><text x="134" y="64" font-family="'IBM Plex Mono','DejaVu Sans Mono',Menlo,Consolas,monospace" font-weight="600" font-size="34" letter-spacing="-0.3"><tspan fill="#43b5e8">///</tspan><tspan fill="#f79127">repronim/containers</tspan></text><text x="135" y="92" font-family="'IBM Plex Sans','Helvetica Neue',Helvetica,Arial,sans-serif" font-weight="400" font-size="16" letter-spacing="0.3" fill="#56607A">containerized environments for reproducible neuro*</text></a></svg>
